#Comment line ignore any data following # character 
#Hierarchical Translation and Rotation (.htr) file 
[Header]	
#Header keywords are followed by a single value 
FileType HTR		#Single word string
DataType HTRS		#Translation followed by rotation and scale data
FileVersion 1		#integer
NumSegments 84		#integer
NumFrames 2		#integer
DataFrameRate 30		#integer, data frame rate in this file
EulerRotationOrder ZYX
CalibrationUnits mm
RotationUnits Degrees
GlobalAxisofGravity Y
BoneLengthAxis Y
ScaleFactor 1.00
[SegmentNames&Hierarchy]
#CHILD	PARENT
MASTER GLOBAL
root MASTER
chest root
L_mid_tent01 root
R_mid_tent01 root
spine01 root
Bip01_Neck chest
L_humerus chest
R_humerus chest
weapon_bone chest
Bip01_Head Bip01_Neck
eye_left_bone Bip01_Head
eye_right_bone Bip01_Head
L_forearm L_humerus
L_front_hand L_forearm
L_weapon_bone L_forearm
L_front_hand01_01 L_front_hand
L_front_hand02_01 L_front_hand
L_front_hand03_01 L_front_hand
L_front_hand01_02 L_front_hand01_01
L_front_hand02_02 L_front_hand02_01
L_front_hand03_02 L_front_hand03_01
R_forearm R_humerus
R_front_hand R_forearm
R_weapon_bone R_forearm
R_front_hand01_01 R_front_hand
R_front_hand02_01 R_front_hand
R_front_hand03_01 R_front_hand
R_front_hand01_02 R_front_hand01_01
R_front_hand02_02 R_front_hand02_01
R_front_hand03_02 R_front_hand03_01
null_rope01_connect L_mid_tent01
Rope1_Seg01 null_rope01_connect
Rope1_Seg02 Rope1_Seg01
Rope1_Seg03 Rope1_Seg02
Rope1_Seg04 Rope1_Seg03
Rope1_Seg05 Rope1_Seg04
Rope1_Seg06 Rope1_Seg05
Rope1_Seg07 Rope1_Seg06
Rope1_Seg09 Rope1_Seg07
L_mid_hand01 Rope1_Seg09
L_mid_hand02 Rope1_Seg09
L_mid_hand03 Rope1_Seg09
null_rope02_connect R_mid_tent01
Rope2_Seg01 null_rope02_connect
Rope2_Seg02 Rope2_Seg01
Rope2_Seg03 Rope2_Seg02
Rope2_Seg04 Rope2_Seg03
Rope2_Seg05 Rope2_Seg04
Rope2_Seg06 Rope2_Seg05
Rope2_Seg07 Rope2_Seg06
Rope2_Seg09 Rope2_Seg07
R_mid_hand01 Rope2_Seg09
R_mid_hand02 Rope2_Seg09
R_mid_hand03 Rope2_Seg09
spine02 spine01
spine03 spine02
pelvis spine03
null_rope03_connect pelvis
null_rope04_connect pelvis
Rope3_Seg01 null_rope03_connect
Rope3_Seg02 Rope3_Seg01
Rope3_Seg03 Rope3_Seg02
Rope3_Seg04 Rope3_Seg03
Rope3_Seg05 Rope3_Seg04
Rope3_Seg06 Rope3_Seg05
Rope3_Seg07 Rope3_Seg06
Rope3_Seg08 Rope3_Seg07
Rope3_Seg09 Rope3_Seg08
R_rear_hand01 Rope3_Seg09
R_rear_hand02 Rope3_Seg09
R_rear_hand03 Rope3_Seg09
Rope4_Seg01 null_rope04_connect
Rope4_Seg02 Rope4_Seg01
Rope4_Seg03 Rope4_Seg02
Rope4_Seg04 Rope4_Seg03
Rope4_Seg05 Rope4_Seg04
Rope4_Seg06 Rope4_Seg05
Rope4_Seg07 Rope4_Seg06
Rope4_Seg08 Rope4_Seg07
Rope4_Seg09 Rope4_Seg08
L_rear_hand01 Rope4_Seg09
L_rear_hand02 Rope4_Seg09
L_rear_hand03 Rope4_Seg09
[BasePosition]
#SegmentName Tx, Ty, Tz, Rx, Ry, Rz, BoneLength
MASTER 0.000000 0.000000 0.000000 -90.000000 0.000000 0.000000 10.000000 
root 0.000000 0.000000 0.000000 0.000000 0.000000 0.000000 10.000000 
chest 0.000000 0.000000 0.000000 0.000000 0.000000 0.000000 10.000000 
L_mid_tent01 0.000000 0.000000 0.000000 0.000000 0.000000 0.000000 10.000000 
R_mid_tent01 0.000000 0.000000 0.000000 0.000000 0.000000 0.000000 10.000000 
spine01 0.000000 0.000000 0.000000 0.000000 0.000000 0.000000 10.000000 
Bip01_Neck 0.000000 0.000000 0.000000 0.000000 0.000000 0.000000 10.000000 
L_humerus 0.000000 0.000000 0.000000 0.000000 0.000000 0.000000 10.000000 
R_humerus 0.000000 0.000000 0.000000 0.000000 0.000000 0.000000 10.000000 
weapon_bone 0.000000 0.000000 0.000000 0.000000 0.000000 0.000000 10.000000 
Bip01_Head 0.000000 0.000000 0.000000 0.000000 0.000000 0.000000 10.000000 
eye_left_bone 0.000000 0.000000 0.000000 0.000000 0.000000 0.000000 10.000000 
eye_right_bone 0.000000 0.000000 0.000000 0.000000 0.000000 0.000000 10.000000 
L_forearm 0.000000 0.000000 0.000000 0.000000 0.000000 0.000000 10.000000 
L_front_hand 0.000000 0.000000 0.000000 0.000000 0.000000 0.000000 10.000000 
L_weapon_bone 0.000000 0.000000 0.000000 0.000000 0.000000 0.000000 10.000000 
L_front_hand01_01 0.000000 0.000000 0.000000 0.000000 0.000000 0.000000 10.000000 
L_front_hand02_01 0.000000 0.000000 0.000000 0.000000 0.000000 0.000000 10.000000 
L_front_hand03_01 0.000000 0.000000 0.000000 0.000000 0.000000 0.000000 10.000000 
L_front_hand01_02 0.000000 0.000000 0.000000 0.000000 0.000000 0.000000 10.000000 
L_front_hand02_02 0.000000 0.000000 0.000000 0.000000 0.000000 0.000000 10.000000 
L_front_hand03_02 0.000000 0.000000 0.000000 0.000000 0.000000 0.000000 10.000000 
R_forearm 0.000000 0.000000 0.000000 0.000000 0.000000 0.000000 10.000000 
R_front_hand 0.000000 0.000000 0.000000 0.000000 0.000000 0.000000 10.000000 
R_weapon_bone 0.000000 0.000000 0.000000 0.000000 0.000000 0.000000 10.000000 
R_front_hand01_01 0.000000 0.000000 0.000000 0.000000 0.000000 0.000000 10.000000 
R_front_hand02_01 0.000000 0.000000 0.000000 0.000000 0.000000 0.000000 10.000000 
R_front_hand03_01 0.000000 0.000000 0.000000 0.000000 0.000000 0.000000 10.000000 
R_front_hand01_02 0.000000 0.000000 0.000000 0.000000 0.000000 0.000000 10.000000 
R_front_hand02_02 0.000000 0.000000 0.000000 0.000000 0.000000 0.000000 10.000000 
R_front_hand03_02 0.000000 0.000000 0.000000 0.000000 0.000000 0.000000 10.000000 
null_rope01_connect 0.000000 0.000000 0.000000 0.000000 0.000000 0.000000 10.000000 
Rope1_Seg01 0.000000 0.000000 0.000000 0.000000 0.000000 0.000000 10.000000 
Rope1_Seg02 0.000000 0.000000 0.000000 0.000000 0.000000 0.000000 10.000000 
Rope1_Seg03 0.000000 0.000000 0.000000 0.000000 0.000000 0.000000 10.000000 
Rope1_Seg04 0.000000 0.000000 0.000000 0.000000 0.000000 0.000000 10.000000 
Rope1_Seg05 0.000000 0.000000 0.000000 0.000000 0.000000 0.000000 10.000000 
Rope1_Seg06 0.000000 0.000000 0.000000 0.000000 0.000000 0.000000 10.000000 
Rope1_Seg07 0.000000 0.000000 0.000000 0.000000 0.000000 0.000000 10.000000 
Rope1_Seg09 0.000000 0.000000 0.000000 0.000000 0.000000 0.000000 10.000000 
L_mid_hand01 0.000000 0.000000 0.000000 0.000000 0.000000 0.000000 10.000000 
L_mid_hand02 0.000000 0.000000 0.000000 0.000000 0.000000 0.000000 10.000000 
L_mid_hand03 0.000000 0.000000 0.000000 0.000000 0.000000 0.000000 10.000000 
null_rope02_connect 0.000000 0.000000 0.000000 0.000000 0.000000 0.000000 10.000000 
Rope2_Seg01 0.000000 0.000000 0.000000 0.000000 0.000000 0.000000 10.000000 
Rope2_Seg02 0.000000 0.000000 0.000000 0.000000 0.000000 0.000000 10.000000 
Rope2_Seg03 0.000000 0.000000 0.000000 0.000000 0.000000 0.000000 10.000000 
Rope2_Seg04 0.000000 0.000000 0.000000 0.000000 0.000000 0.000000 10.000000 
Rope2_Seg05 0.000000 0.000000 0.000000 0.000000 0.000000 0.000000 10.000000 
Rope2_Seg06 0.000000 0.000000 0.000000 0.000000 0.000000 0.000000 10.000000 
Rope2_Seg07 0.000000 0.000000 0.000000 0.000000 0.000000 0.000000 10.000000 
Rope2_Seg09 0.000000 0.000000 0.000000 0.000000 0.000000 0.000000 10.000000 
R_mid_hand01 0.000000 0.000000 0.000000 0.000000 0.000000 0.000000 10.000000 
R_mid_hand02 0.000000 0.000000 0.000000 0.000000 0.000000 0.000000 10.000000 
R_mid_hand03 0.000000 0.000000 0.000000 0.000000 0.000000 0.000000 10.000000 
spine02 0.000000 0.000000 0.000000 0.000000 0.000000 0.000000 10.000000 
spine03 0.000000 0.000000 0.000000 0.000000 0.000000 0.000000 10.000000 
pelvis 0.000000 0.000000 0.000000 0.000000 0.000000 0.000000 10.000000 
null_rope03_connect 0.000000 0.000000 0.000000 0.000000 0.000000 0.000000 10.000000 
null_rope04_connect 0.000000 0.000000 0.000000 0.000000 0.000000 0.000000 10.000000 
Rope3_Seg01 0.000000 0.000000 0.000000 0.000000 0.000000 0.000000 10.000000 
Rope3_Seg02 0.000000 0.000000 0.000000 0.000000 0.000000 0.000000 10.000000 
Rope3_Seg03 0.000000 0.000000 0.000000 0.000000 0.000000 0.000000 10.000000 
Rope3_Seg04 0.000000 0.000000 0.000000 0.000000 0.000000 0.000000 10.000000 
Rope3_Seg05 0.000000 0.000000 0.000000 0.000000 0.000000 0.000000 10.000000 
Rope3_Seg06 0.000000 0.000000 0.000000 0.000000 0.000000 0.000000 10.000000 
Rope3_Seg07 0.000000 0.000000 0.000000 0.000000 0.000000 0.000000 10.000000 
Rope3_Seg08 0.000000 0.000000 0.000000 0.000000 0.000000 0.000000 10.000000 
Rope3_Seg09 0.000000 0.000000 0.000000 0.000000 0.000000 0.000000 10.000000 
R_rear_hand01 0.000000 0.000000 0.000000 0.000000 0.000000 0.000000 10.000000 
R_rear_hand02 0.000000 0.000000 0.000000 0.000000 0.000000 0.000000 10.000000 
R_rear_hand03 0.000000 0.000000 0.000000 0.000000 0.000000 0.000000 10.000000 
Rope4_Seg01 0.000000 0.000000 0.000000 0.000000 0.000000 0.000000 10.000000 
Rope4_Seg02 0.000000 0.000000 0.000000 0.000000 0.000000 0.000000 10.000000 
Rope4_Seg03 0.000000 0.000000 0.000000 0.000000 0.000000 0.000000 10.000000 
Rope4_Seg04 0.000000 0.000000 0.000000 0.000000 0.000000 0.000000 10.000000 
Rope4_Seg05 0.000000 0.000000 0.000000 0.000000 0.000000 0.000000 10.000000 
Rope4_Seg06 0.000000 0.000000 0.000000 0.000000 0.000000 0.000000 10.000000 
Rope4_Seg07 0.000000 0.000000 0.000000 0.000000 0.000000 0.000000 10.000000 
Rope4_Seg08 0.000000 0.000000 0.000000 0.000000 0.000000 0.000000 10.000000 
Rope4_Seg09 0.000000 0.000000 0.000000 0.000000 0.000000 0.000000 10.000000 
L_rear_hand01 0.000000 0.000000 0.000000 0.000000 0.000000 0.000000 10.000000 
L_rear_hand02 0.000000 0.000000 0.000000 0.000000 0.000000 0.000000 10.000000 
L_rear_hand03 0.000000 0.000000 0.000000 0.000000 0.000000 0.000000 10.000000 
#Beginning of Data. Separated by tabs
#Fr	Tx	Ty	Tz	Rx	Ry	Rz	SF
[MASTER]
14 -149.730255 4727.610840 0.000000 0.001660 0.001660 0.001660 4729.981445
15 -157.937744 4940.612793 0.000000 0.001660 0.001660 0.001660 4943.136230
[root]
14 -16.502285 -62.821968 1500.000000 -91.767502 -35.574497 -89.880173 1501.405640
15 -16.502293 -62.821960 1500.000000 -91.767494 -35.574493 -89.880188 1501.405640
[chest]
14 -84.512650 -34.090519 0.000000 8.082716 -0.179584 178.518051 91.129311
15 -84.512650 -34.090519 0.000000 6.296588 -0.429175 -178.801819 91.129311
[L_mid_tent01]
14 27.299437 22.177532 -249.918274 55.349209 58.811836 131.953873 252.381149
15 27.299438 22.177534 -249.918274 61.571724 58.237854 138.895447 252.381149
[R_mid_tent01]
14 23.228794 24.509907 226.238495 166.008575 -28.433519 74.248398 228.744751
15 23.228794 24.509907 226.238495 165.455200 -28.171638 75.416672 228.744751
[spine01]
14 -0.361383 -0.195265 0.000000 0.001845 0.001451 13.654368 0.410763
15 -0.361383 -0.195265 0.000000 0.001845 0.001451 13.654368 0.410763
[Bip01_Neck]
14 165.484543 71.581718 0.000119 176.643677 -1.657967 43.431911 180.302734
15 165.484543 71.581718 0.000119 176.643677 -1.657967 43.431911 180.302734
[L_humerus]
14 -13.983130 -135.272980 -120.471481 -173.819977 73.049034 -80.494331 181.680161
15 -13.983130 -135.272980 -120.471481 -158.968369 72.450195 -64.894028 181.680161
[R_humerus]
14 -13.983309 -135.273102 125.287651 137.954361 -60.621250 -37.911854 184.909012
15 -13.983309 -135.273102 125.287651 126.049301 -52.841396 -23.648935 184.909012
[weapon_bone]
14 235.964890 -300.705902 0.000000 0.000000 -89.951546 -128.212341 382.234833
15 235.964890 -300.705902 0.000000 0.000000 -89.951546 -128.212341 382.234833
[Bip01_Head]
14 213.444305 185.715454 11.776981 7.854237 1.611495 -18.531876 283.173798
15 213.444305 185.715454 11.776981 7.908132 1.559341 -15.421690 283.173798
[eye_left_bone]
14 -24.626970 125.451866 -64.772606 0.000000 -90.000000 -99.840431 143.318359
15 -24.626970 125.451866 -64.772606 0.000000 -90.000000 -99.840431 143.318359
[eye_right_bone]
14 -24.626970 125.451866 64.327362 0.000000 -89.965736 80.156380 143.117676
15 -24.626970 125.451866 64.327362 0.000000 -89.965736 80.156380 143.117676
[L_forearm]
14 322.776093 0.000000 -0.000119 0.000315 -0.002326 -105.437843 322.776093
15 322.776093 0.000000 -0.000119 0.000321 -0.002325 -105.698669 322.776093
[L_front_hand]
14 241.149185 -0.042021 -3.300071 149.893951 -1.837326 -27.423067 241.171753
15 241.149185 -0.042021 -3.300071 149.893951 -1.837326 -27.423067 241.171753
[L_weapon_bone]
14 156.183838 0.000000 0.000000 0.000014 0.000007 0.000001 156.183838
15 156.183838 0.000000 0.000000 0.000014 0.000007 0.000001 156.183838
[L_front_hand01_01]
14 86.095154 20.947098 -0.655860 -0.289102 -0.524108 66.611084 88.609184
15 86.095154 20.947098 -0.655860 -0.279531 -0.529728 65.431473 88.609184
[L_front_hand02_01]
14 86.935165 -11.437475 24.513514 142.580521 -55.269005 -47.395390 91.046425
15 86.935165 -11.437475 24.513514 141.258118 -54.537659 -45.777599 91.046425
[L_front_hand03_01]
14 86.637497 -14.123976 -20.424902 -142.879868 53.494274 -49.391991 90.126129
15 86.637497 -14.123976 -20.424902 -141.638611 52.767319 -47.837204 90.126129
[L_front_hand01_02]
14 71.020905 -0.000179 0.000030 0.000315 -0.002326 -105.429550 71.020905
15 71.020905 -0.000179 0.000030 0.000315 -0.002326 -105.415054 71.020905
[L_front_hand02_02]
14 71.020927 -0.000119 0.000060 0.000315 -0.002326 -105.429550 71.020927
15 71.020927 -0.000119 0.000060 0.000315 -0.002326 -105.415054 71.020927
[L_front_hand03_02]
14 71.020905 -0.000060 0.000060 0.000315 -0.002326 -105.429550 71.020905
15 71.020905 -0.000060 0.000060 0.000315 -0.002326 -105.415054 71.020905
[R_forearm]
14 322.776428 -0.000060 0.000030 0.213041 -0.013718 -87.003540 322.776428
15 322.776428 -0.000060 0.000030 0.209237 -0.019599 -85.647446 322.776428
[R_front_hand]
14 238.847015 -0.006795 2.210259 -8.879457 -10.642941 -26.315098 238.857239
15 238.847015 -0.006795 2.210259 -8.879457 -10.642941 -26.315098 238.857239
[R_weapon_bone]
14 155.664093 0.002503 -0.000030 0.003487 0.001180 -90.988930 155.664078
15 155.664093 0.002503 -0.000030 0.003487 0.001180 -90.988930 155.664078
[R_front_hand01_01]
14 87.624611 14.231146 22.918642 -141.947067 -54.924732 46.726727 91.683487
15 87.624611 14.231146 22.918642 -140.102493 -53.853172 44.460335 91.683487
[R_front_hand02_01]
14 89.356956 14.367283 -19.491137 142.634140 53.329136 49.315861 92.579636
15 89.356956 14.367283 -19.491137 140.872437 52.277996 47.106758 92.579636
[R_front_hand03_01]
14 87.286232 -22.307278 -0.143439 0.092230 -0.445770 -66.286453 90.091743
15 87.286232 -22.307278 -0.143439 0.074609 -0.448192 -64.587509 90.091743
[R_front_hand01_02]
14 71.020905 0.000060 0.000119 0.002323 -0.000334 106.381714 71.020905
15 71.020905 0.000060 0.000119 0.002323 -0.000334 106.381714 71.020905
[R_front_hand02_02]
14 71.020844 -0.000030 -0.000119 0.002323 -0.000334 106.381714 71.020836
15 71.020844 -0.000030 -0.000119 0.002323 -0.000334 106.381714 71.020836
[R_front_hand03_02]
14 71.020905 0.000000 0.000030 0.002323 -0.000334 106.381714 71.020905
15 71.020905 0.000000 0.000030 0.002323 -0.000334 106.381714 71.020905
[null_rope01_connect]
14 328.732483 0.000000 -0.000238 -127.144371 -15.538556 154.157242 328.732483
15 328.732483 0.000000 -0.000238 -128.167908 -12.910925 152.025955 328.732483
[Rope1_Seg01]
14 -0.000035 0.000031 0.000125 -15.909449 20.403770 -110.197548 0.000133
15 -0.000034 0.000031 0.000123 -5.429740 17.511059 -109.213295 0.000131
[Rope1_Seg02]
14 139.999863 -0.000179 0.000000 -79.765358 10.625806 -2.388989 139.999863
15 139.999863 -0.000179 0.000000 -37.939564 7.819126 -3.800653 139.999863
[Rope1_Seg03]
14 139.999924 0.000060 -0.000060 -50.727982 9.969913 24.471992 139.999924
15 139.999924 0.000060 -0.000060 -104.239876 20.236900 4.461839 139.999924
[Rope1_Seg04]
14 139.999924 -0.000060 -0.000119 -14.687443 -20.496387 43.247097 139.999924
15 139.999924 -0.000060 -0.000119 -18.306059 -19.202118 45.250305 139.999924
[Rope1_Seg05]
14 139.999832 0.000119 -0.000060 -1.971950 -12.548961 16.913025 139.999832
15 139.999832 0.000119 -0.000060 -3.764700 -16.664875 23.006573 139.999832
[Rope1_Seg06]
14 139.999954 0.000119 -0.000060 -0.562289 -6.574908 5.668818 139.999954
15 139.999954 0.000119 -0.000060 -0.570637 -7.192637 6.964594 139.999954
[Rope1_Seg07]
14 139.999985 0.000060 0.000000 -0.640696 -5.489871 4.301512 139.999985
15 139.999985 0.000060 0.000000 -0.498257 -5.552779 5.092907 139.999985
[Rope1_Seg09]
14 121.602913 0.000119 -0.000089 -89.793175 -1.359789 0.847147 121.602913
15 121.602913 0.000119 -0.000089 -89.793175 -1.359789 0.847147 121.602913
[L_mid_hand01]
14 103.859421 1.038730 8.195221 110.016693 -43.583382 -14.630747 104.187431
15 103.859421 1.038730 8.195221 109.301476 -41.408241 -13.576795 104.187431
[L_mid_hand02]
14 105.572853 -4.139662 -10.864139 -148.402451 33.171711 -41.059570 106.211075
15 105.572853 -4.139662 -10.864139 -147.153671 31.943630 -38.737034 106.211075
[L_mid_hand03]
14 104.641464 17.579376 -3.913581 -13.575854 13.082141 47.042400 106.179977
15 104.641464 17.579376 -3.913581 -14.087293 12.528420 44.741463 106.179977
[null_rope02_connect]
14 328.732849 0.000179 -0.000119 -98.937447 59.712662 26.521660 328.732849
15 328.732849 0.000179 -0.000119 -98.932358 59.716316 27.584492 328.732849
[Rope2_Seg01]
14 0.000045 0.000125 0.000000 -150.800735 24.701319 -42.035030 0.000133
15 0.000046 0.000123 0.000000 166.868179 20.665462 -44.040031 0.000131
[Rope2_Seg02]
14 139.999741 -0.000060 -0.000119 20.598995 -22.473961 -0.717085 139.999756
15 139.999741 -0.000060 -0.000119 70.888763 -14.233286 -17.625628 139.999756
[Rope2_Seg03]
14 140.000107 0.000030 0.000000 -0.375941 -33.265530 11.939801 140.000107
15 140.000107 0.000030 0.000000 -3.955110 -42.893112 18.228170 140.000107
[Rope2_Seg04]
14 139.999802 0.000000 -0.000060 -1.593960 -22.399689 9.443217 139.999802
15 139.999802 0.000000 -0.000060 -2.515804 -26.200895 11.396172 139.999802
[Rope2_Seg05]
14 139.999985 -0.000060 0.000119 -1.142781 -15.811079 9.483310 139.999985
15 139.999985 -0.000060 0.000119 -1.089891 -15.409894 6.435915 139.999985
[Rope2_Seg06]
14 139.999893 -0.000030 -0.000119 -0.062458 -11.454733 7.035650 139.999893
15 139.999893 -0.000030 -0.000119 -0.796956 -11.220472 4.583575 139.999893
[Rope2_Seg07]
14 139.999893 0.000060 -0.000060 0.235816 -6.392550 3.704193 139.999893
15 139.999893 0.000060 -0.000060 -0.430931 -6.017329 2.386843 139.999893
[Rope2_Seg09]
14 121.338966 0.000089 -0.000060 33.793236 -1.359788 -0.847141 121.338966
15 121.338966 0.000089 -0.000060 33.793236 -1.359788 -0.847141 121.338966
[R_mid_hand01]
14 104.680779 11.144459 -10.335981 -29.481638 39.038574 50.818577 105.778534
15 104.680779 11.144459 -10.335981 -31.399168 37.614391 47.725445 105.778534
[R_mid_hand02]
14 104.070427 2.443552 8.231699 64.792824 -54.379646 21.475639 104.424065
15 104.070427 2.443552 8.231699 66.339691 -51.820015 19.540777 104.424065
[R_mid_hand03]
14 106.028137 -11.221827 -5.996406 -172.901596 14.168235 -60.324333 106.788818
15 106.028137 -11.221827 -5.996406 -172.206848 13.802569 -57.446243 106.788818
[spine02]
14 129.756927 0.001550 0.000119 -1.023899 -3.926965 6.770993 129.756927
15 129.756927 0.001550 0.000119 -1.023899 -3.926965 6.770993 129.756927
[spine03]
14 78.613846 0.087372 -4.898873 1.040681 4.146420 4.212376 78.766380
15 78.613846 0.087372 -4.898873 1.040681 4.146420 4.212376 78.766380
[pelvis]
14 169.435242 0.051022 0.000000 0.019518 -0.190233 -10.721436 169.435257
15 169.435242 0.051022 0.000000 0.019518 -0.190233 -10.721436 169.435257
[null_rope03_connect]
14 -1.257226 -2.466202 137.391083 -147.775742 -87.997871 -100.479507 137.418976
15 -1.257226 -2.466202 137.391083 -147.775696 -87.998070 -100.479729 137.418976
[null_rope04_connect]
14 -1.259640 -2.480268 -137.844437 -147.775742 -87.997871 -100.479507 137.872513
15 -1.259640 -2.480268 -137.844437 -147.775696 -87.998070 -100.479729 137.872513
[Rope3_Seg01]
14 -0.000027 -0.000007 -0.000028 -155.603195 -48.975449 -51.810223 0.000039
15 -0.000027 -0.000002 -0.000030 -168.769226 -67.892365 -47.992893 0.000040
[Rope3_Seg02]
14 139.999924 -0.000119 0.000060 -18.146938 5.102625 -26.752333 139.999924
15 139.999924 -0.000119 0.000060 -7.342722 -6.068005 -26.234655 139.999924
[Rope3_Seg03]
14 139.999924 -0.000119 0.000119 -51.354519 15.469344 -35.524433 139.999924
15 139.999924 -0.000119 0.000119 -39.657215 5.939709 -26.160944 139.999924
[Rope3_Seg04]
14 139.999924 0.000119 0.000000 -20.288855 30.386965 -0.375817 139.999924
15 139.999924 0.000119 0.000000 -27.107464 36.401062 1.609083 139.999924
[Rope3_Seg05]
14 139.999924 -0.000238 0.000060 -1.712068 6.266639 2.543506 139.999924
15 139.999924 -0.000238 0.000060 -1.757184 6.704719 3.481595 139.999924
[Rope3_Seg06]
14 139.999893 -0.000119 -0.000060 -0.342871 2.849050 1.066701 139.999893
15 139.999893 -0.000119 -0.000060 -0.350152 3.123089 1.614964 139.999893
[Rope3_Seg07]
14 139.999771 0.000060 -0.000119 0.076543 1.781755 0.680499 139.999771
15 139.999771 0.000060 -0.000119 0.078711 1.964570 1.031877 139.999771
[Rope3_Seg08]
14 139.999985 -0.000060 0.000000 0.297210 1.059014 0.405024 139.999985
15 139.999985 -0.000060 0.000000 0.299821 1.177160 0.618040 139.999985
[Rope3_Seg09]
14 90.185997 -0.000179 -0.000060 89.793228 -1.359877 -0.847183 90.185997
15 90.185997 -0.000179 -0.000060 89.793228 -1.359877 -0.847183 90.185997
[R_rear_hand01]
14 103.366196 -6.073594 -10.757982 -169.405167 22.402496 -53.260654 104.101845
15 103.366196 -6.073594 -10.757982 -168.130341 21.777143 -49.871910 104.101845
[R_rear_hand02]
14 100.509819 12.039542 -7.992327 -25.038765 30.595232 50.476662 101.543350
15 100.509819 12.039542 -7.992327 -26.694452 29.195726 47.151844 101.543350
[R_rear_hand03]
14 101.539970 5.215704 5.435467 80.458870 -53.275658 11.535563 101.819031
15 101.539970 5.215704 5.435467 81.113556 -50.109844 10.702385 101.819031
[Rope4_Seg01]
14 0.000000 0.000000 0.000000 68.323685 -48.805462 -124.170166 0.000000
15 0.000000 0.000000 0.000000 68.326096 -53.294830 -121.542831 0.000000
[Rope4_Seg02]
14 139.999985 0.000060 0.000119 17.684345 -33.255039 2.776654 139.999985
15 139.999985 0.000060 0.000119 18.172453 -34.963211 6.952424 139.999985
[Rope4_Seg03]
14 139.999924 0.000000 -0.000238 70.647842 -43.549328 17.644432 139.999924
15 139.999924 0.000000 -0.000238 53.709602 -39.259121 25.537411 139.999924
[Rope4_Seg04]
14 139.999985 0.000000 0.000119 13.622869 7.275942 16.642527 139.999985
15 139.999985 0.000000 0.000119 9.809772 9.238600 15.693252 139.999985
[Rope4_Seg05]
14 139.999802 -0.000060 -0.000119 -1.428491 8.941837 2.142482 139.999802
15 139.999802 -0.000060 -0.000119 1.112798 3.803299 3.493288 139.999802
[Rope4_Seg06]
14 139.999924 0.000000 0.000060 0.348522 4.101162 2.360073 139.999924
15 139.999924 0.000000 0.000060 0.772011 1.600643 2.025689 139.999924
[Rope4_Seg07]
14 139.999802 0.000000 0.000000 0.380524 2.523748 1.701951 139.999802
15 139.999802 0.000000 0.000000 0.522955 1.049286 1.292422 139.999802
[Rope4_Seg08]
14 139.999924 0.000000 0.000119 -1.325108 1.536961 1.022653 139.999924
15 139.999924 0.000000 0.000119 -1.235421 0.643131 0.776212 139.999924
[Rope4_Seg09]
14 90.185791 0.000060 0.000060 -135.617828 2.228885 0.850567 90.185791
15 90.185791 0.000060 0.000060 -135.617828 2.228885 0.850567 90.185791
[L_rear_hand01]
14 101.696655 -8.392275 -7.654577 -31.553307 -23.761135 143.711090 102.329041
15 101.696655 -8.392275 -7.654577 -31.194277 -24.256096 142.819397 102.329041
[L_rear_hand02]
14 102.726799 -1.568258 5.773216 82.664513 39.085827 171.495636 102.900848
15 102.726799 -1.568258 5.773216 82.562164 40.032185 171.334641 102.900848
[L_rear_hand03]
14 104.552910 9.721220 -10.420293 -164.089569 -19.094524 -141.662735 105.519653
15 104.552910 9.721220 -10.420293 -164.408707 -19.357925 -140.691956 105.519653
